<?xml version="1.0" encoding="UTF-8" standalone="no"?>
<svg width="32px" height="32px" viewBox="0 0 32 32" version="1.1" xmlns="http://www.w3.org/2000/svg" xmlns:xlink="http://www.w3.org/1999/xlink">
    <!-- Generator: Sketch 44.1 (41455) - http://www.bohemiancoding.com/sketch -->
    <title>sort 2</title>
    <desc>Created with Sketch.</desc>
    <defs></defs>
    <g id="Page-2-Copy" stroke="none" stroke-width="1" fill="none" fill-rule="evenodd">
        <g id="202" stroke="#979797">
            <path d="M12.9918031,15 C12.4440454,15 12,15.4438648 12,16 L12,16 C12,16.5522847 12.4553056,17 12.9918031,17 L31.0081969,17 C31.5559546,17 32,16.5561352 32,16 L32,16 C32,15.4477153 31.5446944,15 31.0081969,15 L12.9918031,15 L12.9918031,15 Z M12.9918031,20 C12.4440454,20 12,20.4438648 12,21 L12,21 C12,21.5522847 12.4553056,22 12.9918031,22 L31.0081969,22 C31.5559546,22 32,21.5561352 32,21 L32,21 C32,20.4477153 31.5446944,20 31.0081969,20 L12.9918031,20 L12.9918031,20 Z M12.9918031,25 C12.4440454,25 12,25.4438648 12,26 L12,26 C12,26.5522847 12.4553056,27 12.9918031,27 L31.0081969,27 C31.5559546,27 32,26.5561352 32,26 L32,26 C32,25.4477153 31.5446944,25 31.0081969,25 L12.9918031,25 L12.9918031,25 Z M12.9918031,30 C12.4440454,30 12,30.4438648 12,31 L12,31 C12,31.5522847 12.4553056,32 12.9918031,32 L31.0081969,32 C31.5559546,32 32,31.5561352 32,31 L32,31 C32,30.4477153 31.5446944,30 31.0081969,30 L12.9918031,30 L12.9918031,30 Z" id="Rectangle-586" stroke="none" fill="#95909E"></path>
            <path d="M8,3.36990208 L8,31.0072136 C8,31.5476379 7.55228475,32 7,32 C6.44386482,32 6,31.5555144 6,31.0072136 L6,3.45769964 L2.09415131,7.36354833 C1.70362702,7.75407262 1.07046204,7.75407262 0.679937748,7.36354833 C0.289413456,6.97302404 0.289413456,6.33985906 0.679937748,5.94933476 L5.08237763,1.54689489 L6.14014886,0.489123652 C6.31454438,0.198280648 6.63435459,-1.05321188e-13 7,-1.05321188e-13 C7.00419126,-1.05321188e-13 7.00837613,2.52455762e-05 7.0125545,7.5590906e-05 C7.27882103,-0.00822261603 7.54777074,0.0892456922 7.75100556,0.292480515 L13.4078598,5.94933476 C13.7983841,6.33985906 13.7983841,6.97302404 13.4078598,7.36354833 C13.0173355,7.75407262 12.3841705,7.75407262 11.9936462,7.36354833 L8,3.36990208 L8,3.36990208 Z" id="Rectangle-509" stroke="none" fill="#2A2630"></path>
        </g>
    </g>
</svg>